<?xml version="1.0" encoding="UTF-8"?>
<svg width="206px" height="60px" viewBox="0 0 206 60" version="1.1" xmlns="http://www.w3.org/2000/svg" xmlns:xlink="http://www.w3.org/1999/xlink">
    <!-- Generator: Sketch 49.3 (51167) - http://www.bohemiancoding.com/sketch -->
    <title>Group 2</title>
    <desc>Created with Sketch.</desc>
    <defs></defs>
    <g id="Page-1" stroke="none" stroke-width="1" fill="none" fill-rule="evenodd">
        <g id="NMH_Logos" transform="translate(0.000000, -83.000000)">
            <g id="Group" transform="translate(0.000000, 21.000000)">
                <g id="Group-2" transform="translate(0.000000, 62.000000)">
                    <path d="M102.8,45.1 L71,0.1" id="Shape" stroke="#000000" stroke-width="0.25"></path>
                    <path d="M37,50.6 C39.6,50.6 41.6,52.7 41.6,55.2 C41.6,57.8 39.5,59.8 37,59.8 C34.4,59.8 32.4,57.7 32.4,55.2 C32.4,52.7 34.5,50.6 37,50.6 M37,59.4 C39.3,59.4 41.1,57.5 41.1,55.3 C41.1,53 39.2,51.2 37,51.2 C34.7,51.2 32.9,53.1 32.9,55.3 C32.9,57.5 34.8,59.4 37,59.4" id="Shape" fill="#000000" fill-rule="nonzero"></path>
                    <polygon id="Shape" fill="#000000" fill-rule="nonzero" points="63.3 59.4 67.7 59.4 67.7 59.9 62.8 59.9 62.8 50.6 63.3 50.6"></polygon>
                    <path d="M88.8,50.6 L90.8,50.6 C93.4,50.6 95.4,52.7 95.4,55.2 C95.4,57.8 93.3,59.8 90.8,59.8 L88.8,59.8 L88.8,50.6 Z M90.8,51.1 L89.3,51.1 L89.3,59.4 L90.8,59.4 C93.1,59.4 94.9,57.5 94.9,55.3 C94.9,53 93.1,51.1 90.8,51.1 Z" id="Shape" fill="#000000" fill-rule="nonzero"></path>
                    <rect id="Rectangle-path" fill="#000000" fill-rule="nonzero" x="116.4" y="50.6" width="1" height="9.3"></rect>
                    <polygon id="Shape" fill="#000000" fill-rule="nonzero" points="138.2 50.6 138.7 50.6 144.8 59 144.8 50.6 145.3 50.6 145.3 59.9 144.8 59.9 138.7 51.5 138.7 59.9 138.2 59.9"></polygon>
                    <path d="M171,59.4 C172,59.4 172.9,59 173.7,58.4 L173.7,55.5 L174.2,55.5 L174.2,58.6 C173.4,59.4 172.3,59.8 171.1,59.8 C168.5,59.8 166.5,57.7 166.5,55.2 C166.5,52.6 168.6,50.6 171.1,50.6 C172.1,50.6 173,50.9 173.8,51.4 L173.8,52 C173.1,51.4 172.2,51 171.1,51 C168.8,51 167,52.9 167,55.1 C166.9,57.5 168.7,59.4 171,59.4" id="Shape" fill="#000000" fill-rule="nonzero"></path>
                    <path d="M195.6,58.1 C196,58.9 196.8,59.4 197.7,59.4 C199.1,59.4 200.1,58.3 200.1,57 C200.1,56.1 199.6,55.3 198.8,54.9 L197.2,54 C196.6,53.7 196.2,53.1 196.2,52.3 C196.2,51.3 197,50.4 198.1,50.4 C198.8,50.4 199.5,50.8 199.8,51.4 L199.4,51.7 C199.2,51.2 198.6,50.9 198.1,50.9 C197.2,50.9 196.6,51.6 196.6,52.4 C196.6,53 196.9,53.4 197.4,53.7 L199,54.5 C199.9,55 200.5,55.9 200.5,57 C200.5,58.5 199.3,59.9 197.6,59.9 C196.6,59.9 195.6,59.3 195.1,58.4 L195.6,58.1 Z" id="Shape" fill="#000000" fill-rule="nonzero"></path>
                    <path d="M144.3,29.8 L132.4,29.8 L129.3,36.6 L124.8,36.6 L138.6,7.1 L151.9,36.6 L147.3,36.6 L144.3,29.8 Z M142.6,25.8 L138.5,16.3 L134.2,25.8 L142.6,25.8 Z M0.2,36.5 L0.2,6.8 L20.4,28 L20.4,8.7 L24.6,8.7 L24.6,38.2 L4.3,17 L4.3,36.5 L0.2,36.5 Z M43.9,12.7 L32.8,12.7 L32.8,20.9 L43.6,20.9 L43.6,24.8 L32.8,24.8 L32.8,32.5 L43.9,32.5 L43.9,36.4 L28.6,36.4 L28.6,8.6 L43.9,8.6 L43.9,12.7 Z M51.3,8.7 L58.5,27.3 L66.1,7.4 L73.3,27.3 L79.5,12.2 L82.3,16.2 L73,38.3 L65.9,18.6 L58.4,38.3 L46.6,8.7 L51.3,8.7 Z M92.7,30.8 L97.4,6.7 L106.9,28.3 L116.8,6.7 L122.1,36.6 L117.8,36.6 L115.1,19.8 L106.9,37.9 L98.9,19.8 L96.1,35.6 L92.7,30.8 Z M159.5,25.2 L159.5,36.5 L155.3,36.5 L155.3,8.7 L160.1,8.7 C162.4,8.7 164.2,8.9 165.4,9.2 C166.6,9.5 167.7,10.1 168.6,11 C170.2,12.6 171,14.5 171,16.9 C171,19.4 170.1,21.5 168.4,22.9 C166.7,24.4 164.4,25.1 161.5,25.1 L159.5,25.1 L159.5,25.2 Z M159.5,21.3 L161.1,21.3 C165,21.3 166.9,19.8 166.9,16.9 C166.9,14 164.9,12.6 160.9,12.6 L159.5,12.6 L159.5,21.3 Z M178.4,8.7 L178.4,32.6 L186.6,32.6 L186.6,36.5 L174.2,36.5 L174.2,8.7 L178.4,8.7 Z M205.8,12.6 L194.7,12.6 L194.7,20.8 L205.5,20.8 L205.5,24.7 L194.7,24.7 L194.7,32.4 L205.8,32.4 L205.8,36.3 L190.5,36.3 L190.5,8.5 L205.8,8.5 L205.8,12.6 Z" id="Shape" fill="#000000" fill-rule="nonzero"></path>
                </g>
            </g>
        </g>
    </g>
</svg>