<?xml version="1.0" encoding="UTF-8"?>
<svg width="206px" height="46px" viewBox="0 0 206 46" version="1.1" xmlns="http://www.w3.org/2000/svg" xmlns:xlink="http://www.w3.org/1999/xlink">
    <!-- Generator: Sketch 49.3 (51167) - http://www.bohemiancoding.com/sketch -->
    <title>Group 3</title>
    <desc>Created with Sketch.</desc>
    <defs></defs>
    <g id="Page-1" stroke="none" stroke-width="1" fill="none" fill-rule="evenodd">
        <g id="Group-2">
            <g id="Group-3">
                <path d="M144.3,29.8 L132.4,29.8 L129.3,36.6 L124.8,36.6 L138.6,7.1 L151.9,36.6 L147.3,36.6 L144.3,29.8 Z M142.6,25.8 L138.5,16.3 L134.2,25.8 L142.6,25.8 Z M0.2,36.5 L0.2,6.8 L20.4,28 L20.4,8.7 L24.6,8.7 L24.6,38.2 L4.3,17 L4.3,36.5 L0.2,36.5 Z M43.9,12.7 L32.8,12.7 L32.8,20.9 L43.6,20.9 L43.6,24.8 L32.8,24.8 L32.8,32.5 L43.9,32.5 L43.9,36.4 L28.6,36.4 L28.6,8.6 L43.9,8.6 L43.9,12.7 Z M51.3,8.7 L58.5,27.3 L66.1,7.4 L73.3,27.3 L79.5,12.2 L82.3,16.2 L73,38.3 L65.9,18.6 L58.4,38.3 L46.6,8.7 L51.3,8.7 Z M92.7,30.8 L97.4,6.7 L106.9,28.3 L116.8,6.7 L122.1,36.6 L117.8,36.6 L115.1,19.8 L106.9,37.9 L98.9,19.8 L96.1,35.6 L92.7,30.8 Z M159.5,25.2 L159.5,36.5 L155.3,36.5 L155.3,8.7 L160.1,8.7 C162.4,8.7 164.2,8.9 165.4,9.2 C166.6,9.5 167.7,10.1 168.6,11 C170.2,12.6 171,14.5 171,16.9 C171,19.4 170.1,21.5 168.4,22.9 C166.7,24.4 164.4,25.1 161.5,25.1 L159.5,25.1 L159.5,25.2 Z M159.5,21.3 L161.1,21.3 C165,21.3 166.9,19.8 166.9,16.9 C166.9,14 164.9,12.6 160.9,12.6 L159.5,12.6 L159.5,21.3 Z M178.4,8.7 L178.4,32.6 L186.6,32.6 L186.6,36.5 L174.2,36.5 L174.2,8.7 L178.4,8.7 Z M205.8,12.6 L194.7,12.6 L194.7,20.8 L205.5,20.8 L205.5,24.7 L194.7,24.7 L194.7,32.4 L205.8,32.4 L205.8,36.3 L190.5,36.3 L190.5,8.5 L205.8,8.5 L205.8,12.6 Z" id="Shape" fill="#FFFFFF" fill-rule="nonzero"></path>
                <path d="M102.8,45.1 L71,0.1" id="Shape" stroke="#FFFFFF" stroke-width="0.25"></path>
            </g>
        </g>
    </g>
</svg>