<?xml version="1.0" encoding="utf-8"?>
<!-- Generator: Adobe Illustrator 20.1.0, SVG Export Plug-In . SVG Version: 6.00 Build 0)  -->
<svg version="1.1" id="Layer_1" xmlns="http://www.w3.org/2000/svg" xmlns:xlink="http://www.w3.org/1999/xlink" x="0px" y="0px"
	 viewBox="0 0 288 288" style="enable-background:new 0 0 288 288;" xml:space="preserve">
<style type="text/css">
	.st0{clip-path:url(#SVGID_2_);}
	.st1{clip-path:url(#SVGID_4_);fill:url(#SVGID_5_);}
	.st2{clip-path:url(#SVGID_7_);fill:url(#SVGID_8_);}
	.st3{clip-path:url(#SVGID_10_);fill:url(#SVGID_11_);}
	.st4{clip-path:url(#SVGID_13_);fill:url(#SVGID_14_);}
	.st5{clip-path:url(#SVGID_16_);fill:url(#SVGID_17_);}
	.st6{clip-path:url(#SVGID_19_);fill:url(#SVGID_20_);}
	.st7{opacity:0.6;clip-path:url(#SVGID_22_);}
	.st8{clip-path:url(#SVGID_24_);}
	.st9{filter:url(#Adobe_OpacityMaskFilter);}
	.st10{clip-path:url(#SVGID_26_);fill:url(#SVGID_28_);}
	.st11{clip-path:url(#SVGID_26_);mask:url(#SVGID_27_);fill:url(#SVGID_29_);}
	.st12{opacity:0.5;clip-path:url(#SVGID_22_);}
	.st13{clip-path:url(#SVGID_31_);}
	.st14{filter:url(#Adobe_OpacityMaskFilter_1_);}
	.st15{clip-path:url(#SVGID_33_);fill:url(#SVGID_35_);}
	.st16{clip-path:url(#SVGID_33_);mask:url(#SVGID_34_);fill:url(#SVGID_36_);}
	.st17{clip-path:url(#SVGID_38_);fill:url(#SVGID_39_);}
	.st18{clip-path:url(#SVGID_41_);fill:url(#SVGID_42_);}
	.st19{clip-path:url(#SVGID_44_);fill:url(#SVGID_45_);}
	.st20{clip-path:url(#SVGID_47_);fill:url(#SVGID_48_);}
	.st21{clip-path:url(#SVGID_50_);fill:#F6951C;}
	.st22{clip-path:url(#SVGID_50_);}
	.st23{clip-path:url(#SVGID_52_);fill:#E8CE60;}
	.st24{clip-path:url(#SVGID_54_);fill:url(#SVGID_55_);}
	.st25{clip-path:url(#SVGID_57_);fill:#E46521;}
	.st26{clip-path:url(#SVGID_57_);fill:#FFF791;}
	.st27{clip-path:url(#SVGID_57_);fill:#F38820;}
	.st28{opacity:0.1;clip-path:url(#SVGID_57_);}
	.st29{clip-path:url(#SVGID_59_);fill:#FFF572;}
	.st30{clip-path:url(#SVGID_57_);fill:#F2963D;}
	.st31{clip-path:url(#SVGID_57_);fill:none;stroke:#000000;stroke-width:0.25;stroke-miterlimit:10;}
	.st32{clip-path:url(#SVGID_57_);}
</style>
<g>
	<defs>
		<rect id="SVGID_1_" width="288" height="288"/>
	</defs>
	<clipPath id="SVGID_2_">
		<use xlink:href="#SVGID_1_"  style="overflow:visible;"/>
	</clipPath>
	<g class="st0">
		<defs>
			<polygon id="SVGID_3_" points="114.7,126.5 112.8,120.6 136.1,87.8 123.4,114.9 			"/>
		</defs>
		<clipPath id="SVGID_4_">
			<use xlink:href="#SVGID_3_"  style="overflow:visible;"/>
		</clipPath>
		
			<linearGradient id="SVGID_5_" gradientUnits="userSpaceOnUse" x1="0" y1="287.9823" x2="1" y2="287.9823" gradientTransform="matrix(13.4784 3.6115 3.6115 -13.4784 -923.0683 3986.675)">
			<stop  offset="0" style="stop-color:#FCF6B2"/>
			<stop  offset="1" style="stop-color:#F09923"/>
		</linearGradient>
		<polygon class="st1" points="114.4,82 145.7,90.4 134.5,132.3 103.2,123.9 		"/>
	</g>
	<g class="st0">
		<defs>
			<polygon id="SVGID_6_" points="123.7,132.9 132.6,122.8 143.5,107.3 136.1,87.8 123.4,114.9 114.7,126.5 			"/>
		</defs>
		<clipPath id="SVGID_7_">
			<use xlink:href="#SVGID_6_"  style="overflow:visible;"/>
		</clipPath>
		
			<linearGradient id="SVGID_8_" gradientUnits="userSpaceOnUse" x1="0" y1="287.9876" x2="1" y2="287.9876" gradientTransform="matrix(19.2352 7.001 7.001 -19.2352 -1894.6119 5647.1382)">
			<stop  offset="0" style="stop-color:#FCF6B2"/>
			<stop  offset="1" style="stop-color:#F09923"/>
		</linearGradient>
		<polygon class="st2" points="118.1,78.6 158,93.1 140.1,142.2 100.2,127.7 		"/>
	</g>
	<g class="st0">
		<defs>
			<polygon id="SVGID_9_" points="143.5,137.3 154.1,122.3 154.1,128.3 			"/>
		</defs>
		<clipPath id="SVGID_10_">
			<use xlink:href="#SVGID_9_"  style="overflow:visible;"/>
		</clipPath>
		
			<linearGradient id="SVGID_11_" gradientUnits="userSpaceOnUse" x1="5.331660e-05" y1="288" x2="1" y2="288" gradientTransform="matrix(10.5891 0 0 -10.5891 143.4984 3179.4385)">
			<stop  offset="0" style="stop-color:#F99D1C"/>
			<stop  offset="1" style="stop-color:#E35B1F"/>
		</linearGradient>
		<rect x="143.5" y="122.3" class="st3" width="10.6" height="15"/>
	</g>
	<g class="st0">
		<defs>
			<polygon id="SVGID_12_" points="143.5,137.4 164.7,137.4 154.1,128.3 			"/>
		</defs>
		<clipPath id="SVGID_13_">
			<use xlink:href="#SVGID_12_"  style="overflow:visible;"/>
		</clipPath>
		
			<linearGradient id="SVGID_14_" gradientUnits="userSpaceOnUse" x1="2.661648e-05" y1="288" x2="1" y2="288" gradientTransform="matrix(21.2115 0 0 -21.2115 143.4984 6241.769)">
			<stop  offset="0" style="stop-color:#F99D1C"/>
			<stop  offset="0.7641" style="stop-color:#D93D21"/>
			<stop  offset="1" style="stop-color:#D93D21"/>
		</linearGradient>
		<rect x="143.5" y="128.3" class="st4" width="21.2" height="9"/>
	</g>
	<g class="st0">
		<defs>
			<polygon id="SVGID_15_" points="145,79.4 141.1,80.7 150.2,95.3 175.4,122.4 			"/>
		</defs>
		<clipPath id="SVGID_16_">
			<use xlink:href="#SVGID_15_"  style="overflow:visible;"/>
		</clipPath>
		
			<linearGradient id="SVGID_17_" gradientUnits="userSpaceOnUse" x1="0" y1="287.9687" x2="1" y2="287.9687" gradientTransform="matrix(-8.6145 10.2664 10.2664 8.6145 -2793.0569 -2385.9138)">
			<stop  offset="0" style="stop-color:#F7901E"/>
			<stop  offset="1.792347e-02" style="stop-color:#F58C1E"/>
			<stop  offset="0.2287" style="stop-color:#E06520"/>
			<stop  offset="0.4362" style="stop-color:#CF4521"/>
			<stop  offset="0.637" style="stop-color:#C42F21"/>
			<stop  offset="0.8284" style="stop-color:#BC2222"/>
			<stop  offset="1" style="stop-color:#BA1D22"/>
		</linearGradient>
		<polygon class="st5" points="196.5,97.1 161.2,139.2 119.9,104.6 155.3,62.5 		"/>
	</g>
	<g class="st0">
		<defs>
			<polygon id="SVGID_18_" points="175.4,122.4 150.2,95.3 143.5,107.3 156.7,126 			"/>
		</defs>
		<clipPath id="SVGID_19_">
			<use xlink:href="#SVGID_18_"  style="overflow:visible;"/>
		</clipPath>
		
			<linearGradient id="SVGID_20_" gradientUnits="userSpaceOnUse" x1="-1.933011e-05" y1="288" x2="1" y2="288" gradientTransform="matrix(0 30.7858 30.7858 0 -8706.8818 95.2516)">
			<stop  offset="0" style="stop-color:#F7901E"/>
			<stop  offset="1.792347e-02" style="stop-color:#F58C1E"/>
			<stop  offset="0.2287" style="stop-color:#E06520"/>
			<stop  offset="0.4362" style="stop-color:#CF4521"/>
			<stop  offset="0.637" style="stop-color:#C42F21"/>
			<stop  offset="0.8284" style="stop-color:#BC2222"/>
			<stop  offset="1" style="stop-color:#BA1D22"/>
		</linearGradient>
		<rect x="143.5" y="95.3" class="st6" width="31.9" height="30.8"/>
	</g>
	<g class="st0">
		<defs>
			<rect id="SVGID_21_" width="288" height="288"/>
		</defs>
		<clipPath id="SVGID_22_">
			<use xlink:href="#SVGID_21_"  style="overflow:visible;"/>
		</clipPath>
		<g class="st7">
			<g>
				<defs>
					<rect id="SVGID_23_" x="131.2" y="87.8" width="12.3" height="27.7"/>
				</defs>
				<clipPath id="SVGID_24_">
					<use xlink:href="#SVGID_23_"  style="overflow:visible;"/>
				</clipPath>
				<g class="st8">
					<defs>
						<polygon id="SVGID_25_" points="143.5,107.3 137.7,115.5 131.2,98.2 136.1,87.8 						"/>
					</defs>
					<clipPath id="SVGID_26_">
						<use xlink:href="#SVGID_25_"  style="overflow:visible;"/>
					</clipPath>
					<defs>
						<filter id="Adobe_OpacityMaskFilter" filterUnits="userSpaceOnUse" x="120.6" y="83.1" width="33.5" height="37.1">
							<feColorMatrix  type="matrix" values="1 0 0 0 0  0 1 0 0 0  0 0 1 0 0  0 0 0 1 0"/>
						</filter>
					</defs>
					<mask maskUnits="userSpaceOnUse" x="120.6" y="83.1" width="33.5" height="37.1" id="SVGID_27_">
						<g class="st9">
							
								<linearGradient id="SVGID_28_" gradientUnits="userSpaceOnUse" x1="0" y1="287.9812" x2="1" y2="287.9812" gradientTransform="matrix(9.2785 -4.3266 -4.3266 -9.2785 1378.321 2776.032)">
								<stop  offset="0" style="stop-color:#000000"/>
								<stop  offset="0.1609" style="stop-color:#363636"/>
								<stop  offset="0.3911" style="stop-color:#7C7C7C"/>
								<stop  offset="0.5986" style="stop-color:#B5B5B5"/>
								<stop  offset="0.7756" style="stop-color:#DDDDDD"/>
								<stop  offset="0.9152" style="stop-color:#F6F6F6"/>
								<stop  offset="1" style="stop-color:#FFFFFF"/>
							</linearGradient>
							<polygon class="st10" points="120.6,92.8 141.3,83.1 154.1,110.6 133.4,120.2 							"/>
						</g>
					</mask>
					
						<linearGradient id="SVGID_29_" gradientUnits="userSpaceOnUse" x1="0" y1="287.9812" x2="1" y2="287.9812" gradientTransform="matrix(9.2785 -4.3266 -4.3266 -9.2785 1378.3212 2776.0322)">
						<stop  offset="0" style="stop-color:#D3D5D6"/>
						<stop  offset="0.2058" style="stop-color:#C9B6A7"/>
						<stop  offset="0.4744" style="stop-color:#BE926F"/>
						<stop  offset="0.7061" style="stop-color:#B67747"/>
						<stop  offset="0.8888" style="stop-color:#B1672E"/>
						<stop  offset="1" style="stop-color:#AF6125"/>
					</linearGradient>
					<polygon class="st11" points="120.6,92.8 141.3,83.1 154.1,110.6 133.4,120.2 					"/>
				</g>
			</g>
		</g>
		<g class="st12">
			<g>
				<defs>
					<rect id="SVGID_30_" x="127.8" y="87.8" width="8.3" height="11.7"/>
				</defs>
				<clipPath id="SVGID_31_">
					<use xlink:href="#SVGID_30_"  style="overflow:visible;"/>
				</clipPath>
				<g class="st13">
					<defs>
						<polygon id="SVGID_32_" points="130.9,98.8 127.8,99.5 136.1,87.8 						"/>
					</defs>
					<clipPath id="SVGID_33_">
						<use xlink:href="#SVGID_32_"  style="overflow:visible;"/>
					</clipPath>
					<defs>
						<filter id="Adobe_OpacityMaskFilter_1_" filterUnits="userSpaceOnUse" x="122" y="83.7" width="19.9" height="19.9">
							<feColorMatrix  type="matrix" values="1 0 0 0 0  0 1 0 0 0  0 0 1 0 0  0 0 0 1 0"/>
						</filter>
					</defs>
					<mask maskUnits="userSpaceOnUse" x="122" y="83.7" width="19.9" height="19.9" id="SVGID_34_">
						<g class="st14">
							
								<linearGradient id="SVGID_35_" gradientUnits="userSpaceOnUse" x1="5.068429e-05" y1="288.0638" x2="1" y2="288.0638" gradientTransform="matrix(9.6703 -10.3701 -10.3701 -9.6703 3114.3599 2884.4873)">
								<stop  offset="0" style="stop-color:#000000"/>
								<stop  offset="0.1744" style="stop-color:#000000"/>
								<stop  offset="0.2318" style="stop-color:#0A0A0A"/>
								<stop  offset="0.3306" style="stop-color:#262626"/>
								<stop  offset="0.4589" style="stop-color:#535353"/>
								<stop  offset="0.6117" style="stop-color:#929292"/>
								<stop  offset="0.7834" style="stop-color:#E0E0E0"/>
								<stop  offset="0.846" style="stop-color:#FFFFFF"/>
								<stop  offset="1" style="stop-color:#FFFFFF"/>
							</linearGradient>
							<polygon class="st15" points="122,94.1 131.7,83.7 141.9,93.2 132.2,103.6 							"/>
						</g>
					</mask>
					
						<linearGradient id="SVGID_36_" gradientUnits="userSpaceOnUse" x1="5.068429e-05" y1="288.0638" x2="1" y2="288.0638" gradientTransform="matrix(9.6703 -10.3701 -10.3701 -9.6703 3114.3599 2884.4873)">
						<stop  offset="0" style="stop-color:#D3D5D6"/>
						<stop  offset="0.1744" style="stop-color:#D3D5D6"/>
						<stop  offset="0.2592" style="stop-color:#CECBCC"/>
						<stop  offset="0.4051" style="stop-color:#BFB0B0"/>
						<stop  offset="0.5945" style="stop-color:#A78483"/>
						<stop  offset="0.8179" style="stop-color:#864845"/>
						<stop  offset="0.846" style="stop-color:#82403D"/>
						<stop  offset="1" style="stop-color:#82403D"/>
					</linearGradient>
					<polygon class="st16" points="122,94.1 131.7,83.7 141.9,93.2 132.2,103.6 					"/>
				</g>
			</g>
		</g>
	</g>
	<g class="st0">
		<defs>
			<polygon id="SVGID_37_" points="154.1,128.3 154.1,122.3 164.7,137.4 			"/>
		</defs>
		<clipPath id="SVGID_38_">
			<use xlink:href="#SVGID_37_"  style="overflow:visible;"/>
		</clipPath>
		
			<linearGradient id="SVGID_39_" gradientUnits="userSpaceOnUse" x1="0" y1="287.9999" x2="1" y2="287.9999" gradientTransform="matrix(-3.7221 5.7316 5.7316 3.7221 -1489.4412 -944.9836)">
			<stop  offset="0" style="stop-color:#D7B156"/>
			<stop  offset="0.2123" style="stop-color:#D39D4E"/>
			<stop  offset="0.6423" style="stop-color:#C86B3A"/>
			<stop  offset="1" style="stop-color:#BE3D27"/>
		</linearGradient>
		<polygon class="st17" points="171.6,126.8 161.6,142.2 147.2,132.9 157.2,117.5 		"/>
	</g>
	<g class="st0">
		<defs>
			<polygon id="SVGID_40_" points="143.5,107.3 136.1,87.8 141.1,80.7 150.2,95.3 			"/>
		</defs>
		<clipPath id="SVGID_41_">
			<use xlink:href="#SVGID_40_"  style="overflow:visible;"/>
		</clipPath>
		
			<linearGradient id="SVGID_42_" gradientUnits="userSpaceOnUse" x1="1.840979e-05" y1="288" x2="1" y2="288" gradientTransform="matrix(14.0903 0 0 -14.0903 136.0767 4152.0142)">
			<stop  offset="0" style="stop-color:#F7901E"/>
			<stop  offset="1.792347e-02" style="stop-color:#F58C1E"/>
			<stop  offset="0.2287" style="stop-color:#E06520"/>
			<stop  offset="0.4362" style="stop-color:#CF4521"/>
			<stop  offset="0.637" style="stop-color:#C42F21"/>
			<stop  offset="0.8284" style="stop-color:#BC2222"/>
			<stop  offset="1" style="stop-color:#BA1D22"/>
		</linearGradient>
		<rect x="136.1" y="80.7" class="st18" width="14.1" height="26.6"/>
	</g>
	<g class="st0">
		<defs>
			<polygon id="SVGID_43_" points="132.6,122.8 123.4,114.9 114.7,126.5 123.7,132.9 			"/>
		</defs>
		<clipPath id="SVGID_44_">
			<use xlink:href="#SVGID_43_"  style="overflow:visible;"/>
		</clipPath>
		
			<linearGradient id="SVGID_45_" gradientUnits="userSpaceOnUse" x1="0" y1="288.0073" x2="1" y2="288.0073" gradientTransform="matrix(3.0974 17.5661 17.5661 -3.0974 -4937.0552 1007.1605)">
			<stop  offset="0" style="stop-color:#FCF6B2"/>
			<stop  offset="1" style="stop-color:#F09923"/>
		</linearGradient>
		<polygon class="st19" points="132,111.8 135.7,132.4 115.3,136 111.7,115.4 		"/>
	</g>
	<g class="st0">
		<defs>
			<polygon id="SVGID_46_" points="164.7,137.4 154.1,122.3 154.1,128.3 			"/>
		</defs>
		<clipPath id="SVGID_47_">
			<use xlink:href="#SVGID_46_"  style="overflow:visible;"/>
		</clipPath>
		
			<linearGradient id="SVGID_48_" gradientUnits="userSpaceOnUse" x1="0" y1="288.0001" x2="1" y2="288.0001" gradientTransform="matrix(5.2395 -2.4432 -2.4432 -5.2395 859.3115 1640.5778)">
			<stop  offset="0" style="stop-color:#F99D1C"/>
			<stop  offset="0.7641" style="stop-color:#942A12"/>
			<stop  offset="1" style="stop-color:#942A12"/>
		</linearGradient>
		<polygon class="st20" points="148.4,125 162.8,118.3 170.5,134.7 156,141.5 		"/>
	</g>
	<g class="st0">
		<defs>
			<rect id="SVGID_49_" width="288" height="288"/>
		</defs>
		<clipPath id="SVGID_50_">
			<use xlink:href="#SVGID_49_"  style="overflow:visible;"/>
		</clipPath>
		<path class="st21" d="M153.1,129.1c0,0-3.1,2.2-7.1,6.1C146,135.3,152.1,130.4,153.1,129.1"/>
		<path class="st21" d="M162.5,135.5c0,0-3.6-3.7-7.5-6.4C155.1,129.1,159.7,133.6,162.5,135.5"/>
		<path class="st21" d="M154.1,128.1c0,0,0.2-3.2,0-5.3C154.1,122.8,153.9,126.4,154.1,128.1"/>
		<g class="st22">
			<g>
				<defs>
					<rect id="SVGID_51_" x="153.5" y="128" width="1" height="0.7"/>
				</defs>
				<clipPath id="SVGID_52_">
					<use xlink:href="#SVGID_51_"  style="overflow:visible;"/>
				</clipPath>
				<path class="st23" d="M154.6,128.7c0,0-0.5-0.5-1,0c0,0,0.3-0.3,0.6-0.7C154.1,128,154.3,128.4,154.6,128.7"/>
			</g>
		</g>
	</g>
	<g class="st0">
		<defs>
			<polygon id="SVGID_53_" points="156.7,126 164.7,137.4 175.3,122.3 			"/>
		</defs>
		<clipPath id="SVGID_54_">
			<use xlink:href="#SVGID_53_"  style="overflow:visible;"/>
		</clipPath>
		
			<linearGradient id="SVGID_55_" gradientUnits="userSpaceOnUse" x1="-2.246710e-05" y1="288.0607" x2="1" y2="288.0607" gradientTransform="matrix(-15.5404 8.9722 8.9722 15.5404 -2408.2874 -4352.6245)">
			<stop  offset="0" style="stop-color:#F7901E"/>
			<stop  offset="1.792347e-02" style="stop-color:#F58C1E"/>
			<stop  offset="0.2287" style="stop-color:#E06520"/>
			<stop  offset="0.4362" style="stop-color:#CF4521"/>
			<stop  offset="0.637" style="stop-color:#C42F21"/>
			<stop  offset="0.8284" style="stop-color:#BC2222"/>
			<stop  offset="1" style="stop-color:#BA1D22"/>
		</linearGradient>
		<polygon class="st24" points="181.8,133.6 161.4,145.5 150.2,126.1 170.7,114.3 		"/>
	</g>
	<g class="st0">
		<defs>
			<rect id="SVGID_56_" width="288" height="288"/>
		</defs>
		<clipPath id="SVGID_57_">
			<use xlink:href="#SVGID_56_"  style="overflow:visible;"/>
		</clipPath>
		<path class="st25" d="M171,117.7c0,0-11.6-12.9-18.6-20C152.5,97.7,162.3,109,171,117.7"/>
		<path class="st26" d="M124.4,112.8c0,0,5.2-9.8,8.2-17.5C132.6,95.3,127.8,104.8,124.4,112.8"/>
		<path class="st27" d="M144.2,106.1c0,0,3.6-5.5,4.6-8.4C148.8,97.7,146.4,101.1,144.2,106.1"/>
		<path class="st26" d="M131.9,122.3c0,0-3.4-3.6-6.9-6C125,116.2,129,120.1,131.9,122.3"/>
		<path class="st26" d="M115.7,125.2c0,0,4.4-5.5,6.5-8.7C122.2,116.5,117.9,121.4,115.7,125.2"/>
		<path class="st25" d="M173.4,122.8c0,0-9.5,1.4-15.9,3.1c0,0,10.4-1.8,16.2-3.1"/>
		<path class="st25" d="M148.8,93.1c0,0-2.1-4.5-5.7-9.1C143.1,83.9,146,89.3,148.8,93.1"/>
		<g class="st28">
			<g>
				<defs>
					<rect id="SVGID_58_" x="136" y="87.8" width="7.5" height="19.7"/>
				</defs>
				<clipPath id="SVGID_59_">
					<use xlink:href="#SVGID_58_"  style="overflow:visible;"/>
				</clipPath>
				<path class="st29" d="M143.5,107.3c0,0-0.8,0.4-2.4,0c-1.2-0.3-5.7-17.5-5-19.5c0,0,0.7,7.5,4.9,18.7c0.5,1.2,2.4,0.4,2.4,0.4
					L143.5,107.3z"/>
			</g>
		</g>
		<path class="st30" d="M150.9,96c0,0-0.6-0.6-1.1,0c0,0,0.5-1,0-1.4C149.7,94.6,150.4,95.1,150.9,96"/>
		<path class="st26" d="M122.9,115.5c0,0,0.6-0.9,0.9-1.5c0,0-0.3,0.7-0.1,1.1C123.8,115.1,123.6,114.8,122.9,115.5"/>
		<line class="st31" x1="143.8" y1="190.1" x2="112" y2="145.1"/>
		<polygon class="st32" points="51.8,200.5 46.9,200.5 46.9,204.9 46.4,204.9 46.4,195.6 46.9,195.6 46.9,200 51.8,200 51.8,195.6 
			52.3,195.6 52.3,204.9 51.8,204.9 		"/>
		<path class="st32" d="M78,195.6c2.6,0,4.6,2.1,4.6,4.6c0,2.6-2.1,4.6-4.6,4.6c-2.6,0-4.6-2.1-4.6-4.6
			C73.4,197.7,75.5,195.6,78,195.6 M78,204.4c2.3,0,4.1-1.9,4.1-4.1c0-2.3-1.9-4.1-4.1-4.1c-2.3,0-4.1,1.9-4.1,4.1
			C73.9,202.5,75.8,204.4,78,204.4"/>
		<polygon class="st32" points="104.3,204.4 108.7,204.4 108.7,204.9 103.8,204.9 103.8,195.6 104.3,195.6 		"/>
		<path class="st32" d="M129.8,195.6h2c2.6,0,4.6,2.1,4.6,4.6c0,2.6-2.1,4.6-4.6,4.6h-2V195.6z M131.8,196.1h-1.5v8.3h1.5
			c2.3,0,4.1-1.9,4.1-4.1C135.9,198,134.1,196.1,131.8,196.1"/>
		<rect x="157.4" y="195.6" class="st32" width="0.5" height="9.3"/>
		<polygon class="st32" points="179.2,195.6 179.7,195.6 185.8,204 185.8,195.6 186.3,195.6 186.3,204.9 185.8,204.9 179.7,196.5 
			179.7,204.9 179.2,204.9 		"/>
		<path class="st32" d="M212,204.4c1,0,1.9-0.4,2.7-1v-2.9h0.5v3.1c-0.8,0.8-1.9,1.2-3.1,1.2c-2.6,0-4.6-2.1-4.6-4.6
			c0-2.6,2.1-4.6,4.6-4.6c1,0,1.9,0.3,2.7,0.8v0.6c-0.7-0.6-1.6-1-2.7-1c-2.3,0-4.1,1.9-4.1,4.1C207.9,202.5,209.7,204.4,212,204.4"
			/>
		<path class="st32" d="M236.6,203.1c0.4,0.8,1.2,1.3,2.1,1.3c1.4,0,2.4-1.1,2.4-2.4c0-0.9-0.5-1.7-1.3-2.1l-1.6-0.9
			c-0.6-0.3-1-0.9-1-1.7c0-1,0.8-1.9,1.9-1.9c0.7,0,1.4,0.4,1.7,1l-0.4,0.3c-0.2-0.5-0.8-0.8-1.3-0.8c-0.9,0-1.5,0.7-1.5,1.5
			c0,0.6,0.3,1,0.8,1.3l1.6,0.8c0.9,0.5,1.5,1.4,1.5,2.5c0,1.5-1.2,2.9-2.9,2.9c-1,0-2-0.6-2.5-1.5L236.6,203.1z"/>
		<path class="st32" d="M185.3,174.8h-11.9l-3.1,6.8h-4.5l13.8-29.5l13.3,29.5h-4.6L185.3,174.8z M183.6,170.8l-4.1-9.5l-4.3,9.5
			H183.6z M41.2,181.5v-29.7L61.4,173v-19.3h4.2v29.5l-20.3-21.2v19.5H41.2z M84.9,157.7H73.8v8.2h10.8v3.9H73.8v7.7h11.1v3.9H69.6
			v-27.8h15.3V157.7z M92.3,153.7l7.2,18.6l7.6-19.9l7.2,19.9l6.2-15.1l2.8,4l-9.3,22.1l-7.1-19.7l-7.5,19.7l-11.8-29.6H92.3z
			 M133.7,175.8l4.7-24.1l9.5,21.6l9.9-21.6l5.3,29.9h-4.3l-2.7-16.8l-8.2,18.1l-8-18.1l-2.8,15.8L133.7,175.8z M200.5,170.2v11.3
			h-4.2v-27.8h4.8c2.3,0,4.1,0.2,5.3,0.5c1.2,0.3,2.3,0.9,3.2,1.8c1.6,1.6,2.4,3.5,2.4,5.9c0,2.5-0.9,4.6-2.6,6
			c-1.7,1.5-4,2.2-6.9,2.2H200.5z M200.5,166.3h1.6c3.9,0,5.8-1.5,5.8-4.4c0-2.9-2-4.3-6-4.3h-1.4V166.3z M219.4,153.7v23.9h8.2v3.9
			h-12.4v-27.8H219.4z M246.8,157.6h-11.1v8.2h10.8v3.9h-10.8v7.7h11.1v3.9h-15.3v-27.8h15.3V157.6z"/>
	</g>
</g>
</svg>
