<?xml version="1.0" encoding="UTF-8"?>
<svg width="12px" height="7px" viewBox="0 0 12 7" version="1.1" xmlns="http://www.w3.org/2000/svg" xmlns:xlink="http://www.w3.org/1999/xlink">
    <!-- Generator: Sketch 49.3 (51167) - http://www.bohemiancoding.com/sketch -->
    <title>Fill 208</title>
    <desc>Created with Sketch.</desc>
    <defs></defs>
    <g id="Page-1" stroke="none" stroke-width="1" fill="none" fill-rule="evenodd">
        <g id="New-Maple-@2x" transform="translate(-322.000000, -139.000000)" fill="#FFFFFF">
            <g id="Quick-links" transform="translate(294.000000, 119.000000)">
                <g id="ARROWS-DOWN" transform="translate(210.000000, 23.500000) scale(1, -1) translate(-210.000000, -23.500000) translate(28.000000, 20.000000)">
                    <path d="M11.8353333,4.24823188 L6.16866667,0.915565217 C6.06466667,0.854231884 5.93466667,0.854231884 5.83066667,0.915565217 L0.164,4.24823188 C0.0626666667,4.30823188 0,4.41756522 0,4.53623188 L0,6.53623188 C0,6.65489855 0.064,6.76556522 0.167333333,6.82489855 C0.271333333,6.88489855 0.399333333,6.88423188 0.502,6.82289855 L6,3.58889855 L11.4973333,6.82289855 C11.5493333,6.85423188 11.608,6.86956522 11.6666667,6.86956522 C11.7233333,6.86956522 11.7806667,6.85423188 11.832,6.82489855 C11.9353333,6.76556522 12,6.65489855 12,6.53623188 L12,4.53623188 C12,4.41756522 11.9373333,4.30823188 11.8353333,4.24823188" id="Fill-208"></path>
                </g>
            </g>
        </g>
    </g>
</svg>